<mxfile host="app.diagrams.net" modified="2024-01-10T09:48:45.087Z" agent="Mozilla/5.0 (Windows NT 10.0; Win64; x64; rv:121.0) Gecko/20100101 Firefox/121.0" etag="bNR6WAwR54Ya5pWltvta" version="22.1.18" type="device">
  <diagram name="Page-1" id="XEx9_Vhjdi86D14qpd9-">
    <mxGraphModel dx="880" dy="434" grid="1" gridSize="10" guides="1" tooltips="1" connect="1" arrows="1" fold="1" page="1" pageScale="1" pageWidth="827" pageHeight="1169" math="0" shadow="0">
      <root>
        <mxCell id="0" />
        <mxCell id="1" parent="0" />
        <mxCell id="lsmuTyIdVju1ZgstYtIc-1" value="m : Model" style="shape=umlLifeline;perimeter=lifelinePerimeter;whiteSpace=wrap;html=1;container=1;dropTarget=0;collapsible=0;recursiveResize=0;outlineConnect=0;portConstraint=eastwest;newEdgeStyle={&quot;curved&quot;:0,&quot;rounded&quot;:0};" vertex="1" parent="1">
          <mxGeometry x="160" y="40" width="100" height="450" as="geometry" />
        </mxCell>
        <mxCell id="lsmuTyIdVju1ZgstYtIc-3" value="" style="html=1;points=[[0,0,0,0,5],[0,1,0,0,-5],[1,0,0,0,5],[1,1,0,0,-5]];perimeter=orthogonalPerimeter;outlineConnect=0;targetShapes=umlLifeline;portConstraint=eastwest;newEdgeStyle={&quot;curved&quot;:0,&quot;rounded&quot;:0};" vertex="1" parent="lsmuTyIdVju1ZgstYtIc-1">
          <mxGeometry x="45" y="70" width="10" height="360" as="geometry" />
        </mxCell>
        <mxCell id="lsmuTyIdVju1ZgstYtIc-2" value="gantt : VueGantt" style="shape=umlLifeline;perimeter=lifelinePerimeter;whiteSpace=wrap;html=1;container=1;dropTarget=0;collapsible=0;recursiveResize=0;outlineConnect=0;portConstraint=eastwest;newEdgeStyle={&quot;curved&quot;:0,&quot;rounded&quot;:0};" vertex="1" parent="1">
          <mxGeometry x="314" y="40" width="100" height="450" as="geometry" />
        </mxCell>
        <mxCell id="lsmuTyIdVju1ZgstYtIc-4" value="" style="html=1;points=[[0,0,0,0,5],[0,1,0,0,-5],[1,0,0,0,5],[1,1,0,0,-5]];perimeter=orthogonalPerimeter;outlineConnect=0;targetShapes=umlLifeline;portConstraint=eastwest;newEdgeStyle={&quot;curved&quot;:0,&quot;rounded&quot;:0};" vertex="1" parent="lsmuTyIdVju1ZgstYtIc-2">
          <mxGeometry x="45" y="80" width="10" height="340" as="geometry" />
        </mxCell>
        <mxCell id="lsmuTyIdVju1ZgstYtIc-5" value="Actualiser(m)" style="html=1;verticalAlign=bottom;startArrow=oval;startFill=1;endArrow=block;startSize=8;curved=0;rounded=0;" edge="1" parent="1">
          <mxGeometry width="60" relative="1" as="geometry">
            <mxPoint x="209.5" y="140" as="sourcePoint" />
            <mxPoint x="363.5" y="140" as="targetPoint" />
          </mxGeometry>
        </mxCell>
        <mxCell id="lsmuTyIdVju1ZgstYtIc-6" value="racine : Tache" style="shape=umlLifeline;perimeter=lifelinePerimeter;whiteSpace=wrap;html=1;container=1;dropTarget=0;collapsible=0;recursiveResize=0;outlineConnect=0;portConstraint=eastwest;newEdgeStyle={&quot;curved&quot;:0,&quot;rounded&quot;:0};" vertex="1" parent="1">
          <mxGeometry x="480" y="40" width="100" height="450" as="geometry" />
        </mxCell>
        <mxCell id="lsmuTyIdVju1ZgstYtIc-7" value="" style="html=1;points=[[0,0,0,0,5],[0,1,0,0,-5],[1,0,0,0,5],[1,1,0,0,-5]];perimeter=orthogonalPerimeter;outlineConnect=0;targetShapes=umlLifeline;portConstraint=eastwest;newEdgeStyle={&quot;curved&quot;:0,&quot;rounded&quot;:0};" vertex="1" parent="lsmuTyIdVju1ZgstYtIc-6">
          <mxGeometry x="45" y="160" width="10" height="40" as="geometry" />
        </mxCell>
        <mxCell id="lsmuTyIdVju1ZgstYtIc-10" value="getRacine()" style="html=1;verticalAlign=bottom;startArrow=oval;startFill=1;endArrow=block;startSize=8;curved=0;rounded=0;" edge="1" parent="1" target="lsmuTyIdVju1ZgstYtIc-1">
          <mxGeometry width="60" relative="1" as="geometry">
            <mxPoint x="360" y="170" as="sourcePoint" />
            <mxPoint x="310" y="170" as="targetPoint" />
          </mxGeometry>
        </mxCell>
        <mxCell id="lsmuTyIdVju1ZgstYtIc-11" value="racine" style="html=1;verticalAlign=bottom;endArrow=open;dashed=1;endSize=8;curved=0;rounded=0;" edge="1" parent="1" target="lsmuTyIdVju1ZgstYtIc-2">
          <mxGeometry relative="1" as="geometry">
            <mxPoint x="210" y="200" as="sourcePoint" />
            <mxPoint x="289.5" y="200" as="targetPoint" />
          </mxGeometry>
        </mxCell>
        <mxCell id="lsmuTyIdVju1ZgstYtIc-12" value="getDateDebut()" style="html=1;verticalAlign=bottom;endArrow=block;curved=0;rounded=0;" edge="1" parent="1">
          <mxGeometry width="80" relative="1" as="geometry">
            <mxPoint x="363.5" y="210" as="sourcePoint" />
            <mxPoint x="529.5" y="210" as="targetPoint" />
          </mxGeometry>
        </mxCell>
        <mxCell id="lsmuTyIdVju1ZgstYtIc-13" value="dateDebut" style="html=1;verticalAlign=bottom;endArrow=open;dashed=1;endSize=8;curved=0;rounded=0;" edge="1" parent="1">
          <mxGeometry relative="1" as="geometry">
            <mxPoint x="529.5" y="230" as="sourcePoint" />
            <mxPoint x="369" y="230" as="targetPoint" />
          </mxGeometry>
        </mxCell>
        <mxCell id="lsmuTyIdVju1ZgstYtIc-14" value="filtrerGantt()" style="html=1;verticalAlign=bottom;startArrow=oval;startFill=1;endArrow=block;startSize=8;curved=0;rounded=0;" edge="1" parent="1">
          <mxGeometry width="60" relative="1" as="geometry">
            <mxPoint x="359" y="250" as="sourcePoint" />
            <mxPoint x="209.5" y="250" as="targetPoint" />
          </mxGeometry>
        </mxCell>
        <mxCell id="lsmuTyIdVju1ZgstYtIc-15" value="return" style="html=1;verticalAlign=bottom;endArrow=open;dashed=1;endSize=8;curved=0;rounded=0;" edge="1" parent="1">
          <mxGeometry relative="1" as="geometry">
            <mxPoint x="209.5" y="270" as="sourcePoint" />
            <mxPoint x="363.5" y="270" as="targetPoint" />
          </mxGeometry>
        </mxCell>
        <mxCell id="lsmuTyIdVju1ZgstYtIc-18" value="affichageGantt" style="html=1;verticalAlign=bottom;endArrow=block;curved=0;rounded=0;" edge="1" parent="1" target="lsmuTyIdVju1ZgstYtIc-2">
          <mxGeometry x="0.0178" y="10" width="80" relative="1" as="geometry">
            <mxPoint x="360" y="290" as="sourcePoint" />
            <mxPoint x="440" y="360" as="targetPoint" />
            <Array as="points">
              <mxPoint x="440" y="290" />
              <mxPoint x="440" y="330" />
            </Array>
            <mxPoint as="offset" />
          </mxGeometry>
        </mxCell>
        <mxCell id="lsmuTyIdVju1ZgstYtIc-19" value="getDateFinProjet" style="html=1;verticalAlign=bottom;startArrow=oval;startFill=1;endArrow=block;startSize=8;curved=0;rounded=0;" edge="1" parent="1">
          <mxGeometry width="60" relative="1" as="geometry">
            <mxPoint x="363.5" y="350" as="sourcePoint" />
            <mxPoint x="209.5" y="350" as="targetPoint" />
          </mxGeometry>
        </mxCell>
        <mxCell id="lsmuTyIdVju1ZgstYtIc-20" value="dateFinProjet" style="html=1;verticalAlign=bottom;endArrow=open;dashed=1;endSize=8;curved=0;rounded=0;entryX=0;entryY=1;entryDx=0;entryDy=-5;entryPerimeter=0;" edge="1" parent="1">
          <mxGeometry relative="1" as="geometry">
            <mxPoint x="209.5" y="370" as="sourcePoint" />
            <mxPoint x="359" y="370" as="targetPoint" />
          </mxGeometry>
        </mxCell>
        <mxCell id="lsmuTyIdVju1ZgstYtIc-23" value="genererTimeLine()" style="html=1;verticalAlign=bottom;endArrow=block;curved=0;rounded=0;" edge="1" parent="1">
          <mxGeometry x="0.0178" y="10" width="80" relative="1" as="geometry">
            <mxPoint x="360" y="390" as="sourcePoint" />
            <mxPoint x="364" y="430" as="targetPoint" />
            <Array as="points">
              <mxPoint x="440" y="390" />
              <mxPoint x="440" y="430" />
            </Array>
            <mxPoint as="offset" />
          </mxGeometry>
        </mxCell>
        <mxCell id="lsmuTyIdVju1ZgstYtIc-25" value="return" style="html=1;verticalAlign=bottom;endArrow=open;dashed=1;endSize=8;curved=0;rounded=0;" edge="1" parent="1" target="lsmuTyIdVju1ZgstYtIc-1">
          <mxGeometry relative="1" as="geometry">
            <mxPoint x="360" y="450" as="sourcePoint" />
            <mxPoint x="280" y="450" as="targetPoint" />
          </mxGeometry>
        </mxCell>
      </root>
    </mxGraphModel>
  </diagram>
</mxfile>
